<svg width="20" height="20" viewBox="0 0 20 20" fill="none" xmlns="http://www.w3.org/2000/svg">
<rect width="20" height="20" rx="10" fill="white"/>
<path d="M14.5223 9.99995C14.5223 8.20722 13.1215 6.73729 11.3573 6.6231V5.926C11.6965 5.82939 11.9457 5.5176 11.9457 5.14877C11.9457 4.70306 11.5834 4.34076 11.1377 4.34076C10.6931 4.34076 10.3297 4.70303 10.3297 5.14877C10.3297 5.5176 10.58 5.82939 10.9181 5.926V6.6231C9.22753 6.73178 7.87064 8.08867 7.76196 9.78039H7.06376C6.96825 9.44116 6.65646 9.19197 6.2865 9.19197C5.84189 9.19197 5.47852 9.55424 5.47852 9.99995C5.47852 10.4457 5.84189 10.8079 6.2865 10.8079C6.65646 10.8079 6.96825 10.5587 7.06376 10.2195H7.76196C7.87064 11.9112 9.22753 13.2681 10.9181 13.3768V14.0739C10.58 14.1705 10.3297 14.4823 10.3297 14.8511C10.3297 15.2969 10.6931 15.6592 11.1377 15.6592C11.5834 15.6592 11.9457 15.2969 11.9457 14.8511C11.9457 14.4823 11.6965 14.1705 11.3573 14.0739V13.3768C13.1214 13.2626 14.5223 11.7927 14.5223 9.99995ZM11.208 12.6281C11.1849 12.6303 11.1619 12.6314 11.1377 12.6314C11.1147 12.6314 11.0916 12.6303 11.0674 12.6281C10.4164 12.6116 9.79948 12.358 9.32522 11.9079C8.79717 11.4051 8.50627 10.7278 8.50627 9.99995C8.50627 9.27213 8.79717 8.59476 9.32522 8.09198C9.79948 7.64188 10.4164 7.38829 11.0674 7.37181C11.0916 7.36961 11.1146 7.36851 11.1377 7.36851C11.1619 7.36851 11.1849 7.36961 11.208 7.37181C11.8601 7.38827 12.4759 7.64186 12.9513 8.09198C13.4793 8.59476 13.7703 9.27213 13.7703 9.99995C13.7703 10.2689 13.7296 10.5335 13.6495 10.7871C13.6132 10.9034 13.4903 10.9671 13.375 10.9309C13.2587 10.8947 13.195 10.7717 13.2312 10.6564C13.2751 10.5148 13.3037 10.3677 13.319 10.2195H12.4616C12.4375 10.8354 12.3124 11.4063 12.1005 11.8443C12.0719 11.9024 12.0423 11.9573 12.0116 12.0089C12.2443 11.908 12.4605 11.7685 12.6494 11.5896C12.7504 11.493 12.8426 11.3865 12.9238 11.2723C12.9941 11.1735 13.1313 11.1505 13.2301 11.2218C13.3289 11.2921 13.352 11.4293 13.2817 11.5281C13.184 11.6642 13.0731 11.7916 12.9513 11.908C12.477 12.358 11.8601 12.6116 11.208 12.6281Z" fill="#3C3C3C"/>
<path d="M12.0227 10.2195C11.9986 10.7651 11.8866 11.2778 11.7054 11.6533C11.6011 11.8684 11.4804 12.0254 11.3574 12.1133V10.2196L12.0227 10.2195Z" fill="#3C3C3C"/>
<path d="M10.9172 10.2195V12.1132C10.7943 12.0254 10.6746 11.8684 10.5703 11.6532C10.3892 11.2778 10.2761 10.7651 10.252 10.2195H10.9172V10.2195Z" fill="#3C3C3C"/>
<path d="M10.2637 12.009C10.0309 11.908 9.81467 11.7686 9.62584 11.5896C9.24052 11.2218 9.00669 10.7421 8.95508 10.2195H9.81247C9.83771 10.8354 9.96287 11.4063 10.1747 11.8443C10.2033 11.9025 10.2329 11.9574 10.2637 12.009Z" fill="#3C3C3C"/>
<path d="M10.2637 7.99097C10.2329 8.04255 10.2033 8.09744 10.1747 8.15564C9.96287 8.59366 9.83771 9.16453 9.81247 9.7804H8.95508C9.00669 9.25783 9.2405 8.77809 9.62584 8.41033C9.81467 8.23139 10.0309 8.09198 10.2637 7.99097Z" fill="#3C3C3C"/>
<path d="M10.9172 7.88666V9.78036H10.252C10.2761 9.23476 10.3892 8.72206 10.5703 8.34662C10.6746 8.13146 10.7943 7.97448 10.9172 7.88666Z" fill="#3C3C3C"/>
<path d="M12.0227 9.78036H11.3574V7.88666C11.4804 7.97448 11.6011 8.13146 11.7054 8.34664C11.8866 8.72209 11.9985 9.23476 12.0227 9.78036Z" fill="#3C3C3C"/>
<path d="M13.3203 9.7804H12.4618C12.4377 9.16453 12.3125 8.59366 12.1006 8.15564C12.0721 8.09744 12.0424 8.04255 12.0117 7.99097C12.2445 8.09196 12.4607 8.23139 12.6484 8.41033C13.0349 8.77809 13.2687 9.25783 13.3203 9.7804Z" fill="#3C3C3C"/>
</svg>
