<svg width="20" height="20" viewBox="0 0 20 20" fill="none" xmlns="http://www.w3.org/2000/svg">
<rect width="20" height="20" rx="10" fill="white"/>
<g clip-path="url(#clip0_1120_4970)">
<path d="M14.8102 11.9872H14.332C14.3446 11.9193 14.3732 11.8375 14.4314 11.7473C14.6105 11.4696 14.6489 11.2244 14.6827 11.008C14.704 10.8716 14.7241 10.7428 14.7789 10.5942C14.8274 10.4626 14.9207 10.3557 15.0162 10.2742L15.3468 11.0892L16 10.8242L14.818 7.90137L14.5308 7.95948C14.4981 7.9661 13.7224 8.13227 13.2374 9.03038C12.8834 9.68591 12.0864 10.1949 11.1168 10.3988L10.9236 9.68981L10.5789 9.79068C10.0097 9.95727 9.67879 10.1074 9.16949 10.4083C9.16674 10.4119 9.1639 10.4156 9.16115 10.4192L7.82231 12.2171H6.72339C6.72339 12.2171 6.10767 11.3777 5.75587 10.9095C5.55976 10.9842 5.38739 11.0929 5.2372 11.2363C4.85722 11.5991 4.70254 12.1994 4.82473 12.7485L4 13.297L4.97513 15.0605H5.44815L5.81363 14.6492C6.18249 14.2342 6.71249 13.9961 7.26775 13.9961C7.73614 13.9961 8.18968 14.1659 8.54487 14.4742C8.94911 14.8251 9.34215 15.0177 9.71181 15.0588C10.1362 15.106 10.3922 15.0021 10.7348 14.8922C10.9945 14.809 11.1929 14.7235 11.5332 14.7676C11.677 14.7862 11.8079 14.7951 11.9278 14.7951C12.6005 14.7951 12.9229 14.5146 13.1769 14.0978C13.2646 13.9538 13.3872 13.871 13.5039 13.8342C13.8096 13.7379 14.0905 14.0964 14.0905 14.0964L14.7565 13.769C14.875 14.0951 14.9352 14.4362 14.9352 14.7844H15.6401C15.6401 14.314 15.5515 13.854 15.3769 13.4172L14.8102 11.9872Z" fill="#3C3C3C"/>
<path d="M7.08046 11.5121H7.46499L8.6008 9.99133C9.08024 9.36408 9.73687 8.50502 9.73687 7.39363C9.73687 6.0349 8.63146 4.9295 7.27274 4.9295C5.91402 4.9295 4.80859 6.0349 4.80859 7.39363C4.80859 8.50502 5.4652 9.36408 5.94466 9.99133L7.08046 11.5121ZM6.09941 7.39363C6.09941 6.74666 6.62577 6.2203 7.27274 6.2203C7.91971 6.2203 8.44607 6.74666 8.44607 7.39363C8.44607 8.0406 7.91971 8.56696 7.27274 8.56696C6.62577 8.56696 6.09941 8.04062 6.09941 7.39363Z" fill="#3C3C3C"/>
<path d="M7.70715 7.5737C7.80623 7.33466 7.69277 7.06056 7.45373 6.96148C7.21469 6.86239 6.94059 6.97585 6.84151 7.21489C6.74243 7.45393 6.85589 7.72803 7.09493 7.82711C7.33396 7.92619 7.60806 7.81273 7.70715 7.5737Z" fill="#3C3C3C"/>
</g>
<defs>
<clipPath id="clip0_1120_4970">
<rect width="12" height="12" fill="white" transform="translate(4 4)"/>
</clipPath>
</defs>
</svg>
