<svg xmlns="http://www.w3.org/2000/svg" width="24" height="25" viewBox="0 0 24 25" fill="none">
  <path d="M23.9929 12.5004C23.9929 18.5612 19.5017 23.5717 13.6671 24.3848C13.1216 24.4605 12.5634 24.5 11.9969 24.5C11.3429 24.5 10.7007 24.4479 10.0753 24.347C4.36266 23.4271 0 18.4729 0 12.5004C0 5.87295 5.37137 0.5 11.996 0.5C18.6207 0.5 23.9929 5.87295 23.9929 12.5004Z" fill="#1877F2"/>
  <path d="M13.6672 10.1351V12.7493H16.9001L16.3881 16.2707H13.6672V24.384C13.1216 24.4596 12.5635 24.4992 11.9969 24.4992C11.3429 24.4992 10.7007 24.447 10.0753 24.3461V16.2707H7.09375V12.7493H10.0753V9.55077C10.0753 7.56639 11.6834 5.95703 13.668 5.95703V5.95871C13.6739 5.95871 13.6789 5.95703 13.6848 5.95703H16.9009V9.00254H14.7994C14.1749 9.00254 13.668 9.50957 13.668 10.1343L13.6672 10.1351Z" fill="white"/>
</svg>