<svg xmlns="http://www.w3.org/2000/svg" width="25" height="25" viewBox="0 0 25 25" fill="none">
  <path d="M12.9574 0.5H12.9027C6.29237 0.5 0.933594 5.86035 0.933594 12.4727V12.5273C0.933594 19.1397 6.29237 24.5 12.9027 24.5H12.9574C19.5678 24.5 24.9265 19.1397 24.9265 12.5273V12.4727C24.9265 5.86035 19.5678 0.5 12.9574 0.5Z" fill="url(#paint0_linear_1120_5000)"/>
  <path d="M16.6417 5.38275H9.21765C7.16662 5.38275 5.49805 7.05181 5.49805 9.10345V15.8974C5.49805 17.9491 7.16662 19.6181 9.21765 19.6181H16.6417C18.6928 19.6181 20.3613 17.9491 20.3613 15.8974V9.10345C20.3613 7.05181 18.6928 5.38275 16.6417 5.38275ZM6.81021 9.10345C6.81021 7.77577 7.89036 6.6953 9.21765 6.6953H16.6417C17.969 6.6953 19.0492 7.77577 19.0492 9.10345V15.8974C19.0492 17.2251 17.969 18.3056 16.6417 18.3056H9.21765C7.89036 18.3056 6.81021 17.2251 6.81021 15.8974V9.10345Z" fill="white"/>
  <path d="M12.9306 15.9605C14.8379 15.9605 16.3904 14.4083 16.3904 12.4996C16.3904 10.5909 14.8387 9.0387 12.9306 9.0387C11.0224 9.0387 9.4707 10.5909 9.4707 12.4996C9.4707 14.4083 11.0224 15.9605 12.9306 15.9605ZM12.9306 10.3521C14.115 10.3521 15.0783 11.3157 15.0783 12.5004C15.0783 13.6852 14.115 14.6488 12.9306 14.6488C11.7462 14.6488 10.7829 13.6852 10.7829 12.5004C10.7829 11.3157 11.7462 10.3521 12.9306 10.3521Z" fill="white"/>
  <path d="M16.7096 9.59782C17.2232 9.59782 17.6418 9.17993 17.6418 8.66534C17.6418 8.15075 17.224 7.73285 16.7096 7.73285C16.1951 7.73285 15.7773 8.15075 15.7773 8.66534C15.7773 9.17993 16.1951 9.59782 16.7096 9.59782Z" fill="white"/>
  <defs>
    <linearGradient id="paint0_linear_1120_5000" x1="4.43885" y1="20.9937" x2="21.4263" y2="4.01213" gradientUnits="userSpaceOnUse">
      <stop stop-color="#FAAD4F"/>
      <stop offset="0.35" stop-color="#DD2A7B"/>
      <stop offset="0.62" stop-color="#9537B0"/>
      <stop offset="1" stop-color="#515BD4"/>
    </linearGradient>
  </defs>
</svg>