<svg xmlns="http://www.w3.org/2000/svg" width="25" height="25" viewBox="0 0 25 25" fill="none">
  <path d="M24.8573 12.5004C24.8573 18.5612 20.3661 23.5717 14.5315 24.3848C13.986 24.4605 13.4278 24.5 12.8613 24.5C12.2073 24.5 11.5651 24.4479 10.9397 24.347C5.22789 23.4271 0.865234 18.4729 0.865234 12.5004C0.865234 5.87295 6.2366 0.5 12.8621 0.5C19.4876 0.5 24.859 5.87295 24.859 12.5004H24.8573Z" fill="#1C1C1B"/>
  <path d="M5.73173 5.7923L11.2645 13.1917L5.69727 19.2078H6.95059L11.8252 13.9408L15.7633 19.2078H20.0276L14.1839 11.3923L19.3661 5.7923H18.1128L13.624 10.6431L9.99688 5.7923H5.73256H5.73173ZM7.5743 6.71554H9.53287L18.1834 18.2846H16.2248L7.5743 6.71554Z" fill="white"/>
</svg>