<svg xmlns="http://www.w3.org/2000/svg" width="25" height="25" viewBox="0 0 25 25" fill="none">
  <path d="M24.7237 12.5C24.7237 5.89139 19.3679 0.534058 12.7613 0.534058C6.15459 0.534058 0.798828 5.89139 0.798828 12.5C0.798828 19.1086 6.15459 24.466 12.7613 24.466C19.3679 24.466 24.7237 19.1086 24.7237 12.5Z" fill="#FF0209"/>
  <path d="M17.8392 17.7998C17.4828 17.8385 17.118 17.8452 16.7683 17.8444C14.0406 17.8419 11.3128 17.8393 8.58597 17.8376C7.72772 17.8376 6.79299 17.8099 6.12977 17.2642C5.38248 16.6479 5.22698 15.5792 5.16646 14.6122C5.0824 13.287 5.07567 11.9577 5.1446 10.6317C5.18243 9.90351 5.24883 9.15769 5.56237 8.49848C5.78765 8.02508 6.16339 7.59962 6.64421 7.37596C7.2032 7.11614 7.78825 7.16239 8.39011 7.16155C9.83088 7.15986 11.2717 7.15902 12.7124 7.15734C14.2104 7.15566 15.7091 7.15482 17.2071 7.15314C17.9148 7.15314 18.6747 7.16743 19.2522 7.57692C19.9978 8.10496 20.2004 9.10976 20.2937 10.0187C20.466 11.6928 20.4685 13.3846 20.3004 15.0587C20.2307 15.749 20.1146 16.4789 19.6599 17.0027C19.2093 17.5223 18.5411 17.7225 17.84 17.799L17.8392 17.7998Z" fill="white"/>
  <path d="M15.1998 12.5L11.1348 10.1524V14.8476L15.1998 12.5Z" fill="#FF0209"/>
</svg>