<svg xmlns="http://www.w3.org/2000/svg" width="16" height="16" viewBox="0 0 16 16" fill="none">
  <path d="M13.7032 4.29886C13.2615 2.11861 10.858 0.843232 8.80361 1.70061C7.48311 2.25398 6.59961 3.57923 6.59961 5.01373V8.59998H10.1859C12.4231 8.59998 14.1474 6.48861 13.7032 4.29886ZM12.7057 5.02086C12.7057 5.78561 11.5182 5.78561 11.5182 5.02086C11.5182 4.25611 12.7057 4.25611 12.7057 5.02086ZM7.66836 5.02086C7.66836 4.25611 8.85586 4.25611 8.85586 5.02086C8.85586 5.78561 7.66836 5.78561 7.66836 5.02086ZM9.59211 5.01373C9.59211 4.24661 10.7796 4.24661 10.7796 5.01373C10.7796 5.77848 9.59211 5.77848 9.59211 5.01373Z" fill="#205732"/>
  <path d="M8.66837 13.7396C9.14099 13.8488 9.63974 13.7087 9.98649 13.3667C10.2644 13.0936 10.5209 12.7967 10.7512 12.4808C11.003 12.1364 10.8866 11.6306 10.509 11.4311L9.12674 10.7019C8.67312 10.4621 8.12449 10.4858 7.68987 10.7637L6.66624 11.4216C5.47399 10.7186 4.48124 9.7258 3.77824 8.53355L4.43612 7.50993C4.71399 7.0753 4.73774 6.52668 4.49786 6.07305L3.76874 4.6908C3.56924 4.3108 3.06574 4.1968 2.71899 4.44855C2.40312 4.67893 2.10624 4.93543 1.83312 5.2133C1.49112 5.56005 1.35099 6.0588 1.46024 6.53143C2.28674 10.1153 5.08449 12.9131 8.66837 13.7396Z" fill="#205732"/>
</svg>