<svg xmlns="http://www.w3.org/2000/svg" width="19" height="20" viewBox="0 0 19 20" fill="none">
  <g clip-path="url(#clip0_1116_4906)">
    <path d="M16.6591 9.69989C16.6591 6.8614 14.4412 4.53401 11.6479 4.35321V3.24947C12.185 3.0965 12.5795 2.60284 12.5795 2.01885C12.5795 1.31314 12.0059 0.739502 11.3002 0.739502C10.5963 0.739502 10.0209 1.3131 10.0209 2.01885C10.0209 2.60284 10.4172 3.0965 10.9526 3.24947V4.35321C8.27578 4.52529 6.12737 6.6737 5.9553 9.35225H4.84981C4.69859 8.81513 4.20492 8.42059 3.61915 8.42059C2.91519 8.42059 2.33984 8.99419 2.33984 9.69989C2.33984 10.4056 2.91519 10.9792 3.61915 10.9792C4.20492 10.9792 4.69859 10.5846 4.84981 10.0475H5.9553C6.12737 12.7261 8.27578 14.8745 10.9526 15.0466V16.1503C10.4172 16.3033 10.0209 16.7969 10.0209 17.3809C10.0209 18.0867 10.5963 18.6603 11.3002 18.6603C12.0059 18.6603 12.5795 18.0867 12.5795 17.3809C12.5795 16.7969 12.185 16.3033 11.6479 16.1503V15.0466C14.4411 14.8658 16.6591 12.5384 16.6591 9.69989ZM11.4115 13.8611C11.375 13.8646 11.3385 13.8664 11.3002 13.8664C11.2638 13.8664 11.2272 13.8646 11.189 13.8611C10.1582 13.8351 9.18136 13.4335 8.43046 12.7209C7.59438 11.9248 7.13378 10.8523 7.13378 9.69989C7.13378 8.5475 7.59438 7.475 8.43046 6.67893C9.18136 5.96628 10.1582 5.56476 11.189 5.53867C11.2272 5.53518 11.2637 5.53344 11.3002 5.53344C11.3385 5.53344 11.375 5.53518 11.4115 5.53867C12.444 5.56472 13.4191 5.96625 14.1717 6.67893C15.0078 7.475 15.4684 8.5475 15.4684 9.69989C15.4684 10.1257 15.4041 10.5447 15.2772 10.9462C15.2198 11.1304 15.0252 11.2313 14.8427 11.1739C14.6584 11.1165 14.5576 10.9218 14.615 10.7393C14.6845 10.5151 14.7297 10.2822 14.754 10.0475H13.3965C13.3582 11.0227 13.1601 11.9265 12.8246 12.6201C12.7794 12.7122 12.7325 12.7991 12.6838 12.8808C13.0523 12.7209 13.3947 12.5001 13.6937 12.2168C13.8536 12.0638 13.9996 11.8952 14.1283 11.7144C14.2395 11.558 14.4568 11.5215 14.6132 11.6345C14.7697 11.7458 14.8061 11.963 14.6949 12.1195C14.5402 12.335 14.3647 12.5366 14.1717 12.7209C13.4208 13.4335 12.4439 13.8351 11.4115 13.8611Z" fill="#205732"/>
    <path d="M12.7008 10.0476C12.6626 10.9115 12.4853 11.7232 12.1985 12.3177C12.0333 12.6584 11.8421 12.9069 11.6475 13.046V10.0476L12.7008 10.0476Z" fill="#205732"/>
    <path d="M10.9528 10.0476V13.046C10.7581 12.907 10.5686 12.6584 10.4035 12.3177C10.1167 11.7232 9.93767 10.9115 9.89941 10.0476H10.9528V10.0476Z" fill="#205732"/>
    <path d="M9.91861 12.8809C9.55011 12.721 9.2077 12.5002 8.90871 12.2169C8.29863 11.6346 7.92839 10.875 7.84668 10.0476H9.20421C9.24418 11.0227 9.44235 11.9266 9.77781 12.6201C9.82301 12.7122 9.86996 12.7992 9.91861 12.8809Z" fill="#205732"/>
    <path d="M9.91861 6.51904C9.86996 6.60072 9.82301 6.68763 9.77781 6.77977C9.44235 7.47331 9.24418 8.37718 9.20421 9.35231H7.84668C7.92839 8.52492 8.2986 7.76532 8.90871 7.18304C9.2077 6.89971 9.55011 6.67898 9.91861 6.51904Z" fill="#205732"/>
    <path d="M10.9528 6.354V9.35237H9.89941C9.93767 8.4885 10.1167 7.67673 10.4035 7.08228C10.5686 6.74161 10.7581 6.49305 10.9528 6.354Z" fill="#205732"/>
    <path d="M12.7008 9.35237H11.6475V6.354C11.8421 6.49305 12.0334 6.74161 12.1985 7.08231C12.4853 7.67677 12.6625 8.4885 12.7008 9.35237Z" fill="#205732"/>
    <path d="M14.7555 9.35231H13.3962C13.358 8.37718 13.1599 7.47331 12.8244 6.77977C12.7792 6.68763 12.7322 6.60072 12.6836 6.51904C13.0521 6.67895 13.3945 6.89971 13.6917 7.18304C14.3036 7.76532 14.6738 8.52492 14.7555 9.35231Z" fill="#205732"/>
  </g>
  <defs>
    <clipPath id="clip0_1116_4906">
      <rect width="19" height="19" fill="white" transform="translate(0 0.199951)"/>
    </clipPath>
  </defs>
</svg>