<svg xmlns="http://www.w3.org/2000/svg" width="16" height="16" viewBox="0 0 16 16" fill="none">
  <path d="M8.00002 2.53172C5.60617 2.53172 3.65867 4.47925 3.65867 6.87306C3.65867 9.26688 5.60617 11.2153 8.00002 11.2153C10.3939 11.2153 12.3423 9.26741 12.3423 6.87306C12.3423 4.47872 10.3944 2.53172 8.00002 2.53172ZM8.14661 3.40613C8.54792 3.35481 8.91439 3.63791 8.9657 4.03831C9.01702 4.43962 8.73389 4.80609 8.33261 4.85741C7.93223 4.90872 7.56573 4.62559 7.51442 4.22431C7.46311 3.82394 7.74623 3.45744 8.14661 3.40613ZM9.27995 9.8535L8.84933 10.1128C7.88364 10.6937 7.13052 10.1009 7.22948 9.334L7.59598 6.48825C7.64911 6.07687 7.3028 6.00906 6.90242 6.06222C6.83645 6.07047 6.77508 6.03291 6.75308 5.96969C6.73111 5.90737 6.75492 5.83959 6.81264 5.80478L7.24236 5.54641C8.20805 4.96462 8.96117 5.55741 8.8622 6.32428L8.4957 9.17094C8.44258 9.58141 8.78889 9.65012 9.1902 9.59697C9.25617 9.58781 9.31755 9.62628 9.33955 9.68859C9.36155 9.75181 9.3368 9.81962 9.27998 9.8535H9.27995ZM8.00002 0.25C4.34808 0.25 1.37695 3.22109 1.37695 6.87306C1.37695 8.30819 1.8288 9.67416 2.68358 10.8233C3.3273 11.689 4.1643 12.35 5.05039 13.0499C5.99358 13.7948 6.96889 14.5651 7.82748 15.6658C7.86892 15.7189 7.93258 15.75 7.99998 15.75C8.06739 15.75 8.13102 15.7189 8.17248 15.6658C9.03089 14.5653 10.0061 13.7952 10.9492 13.0504C11.8357 12.3504 12.673 11.6892 13.3164 10.8233C14.1712 9.67416 14.623 8.30819 14.623 6.87306C14.623 3.22109 11.652 0.25 7.99998 0.25H8.00002ZM8.00002 12.1528C5.08923 12.1528 2.72117 9.78434 2.72117 6.87306C2.72117 3.96178 5.08923 1.59422 8.00002 1.59422C10.9108 1.59422 13.2798 3.96231 13.2798 6.87306C13.2798 9.78381 10.9113 12.1528 8.00002 12.1528Z" fill="#385642"/>
</svg>