<svg xmlns="http://www.w3.org/2000/svg" width="19" height="20" viewBox="0 0 19 20" fill="none">
  <g clip-path="url(#clip0_1116_4918)">
    <path d="M8.04189 5.58325L10.0784 7.62005L12.2203 5.57027C12.4249 5.37231 12.6991 5.26272 12.9838 5.26515C13.2684 5.26758 13.5407 5.38183 13.7419 5.58325L16.2784 8.11659H16.4671V1.46659C16.4671 1.29861 16.4004 1.13752 16.2816 1.01875C16.1629 0.899978 16.0018 0.833252 15.8338 0.833252H1.26712C1.09915 0.833252 0.938061 0.899978 0.819288 1.01875C0.700515 1.13752 0.633789 1.29861 0.633789 1.46659V11.2035L6.52031 5.56995C6.72493 5.37204 6.99916 5.26251 7.28382 5.26499C7.56849 5.26748 7.84076 5.38179 8.04189 5.58325ZM9.85797 2.42292C9.92774 2.15045 10.0862 1.90896 10.3084 1.7365C10.5305 1.56404 10.8038 1.47043 11.0851 1.47043C11.3663 1.47043 11.6396 1.56404 11.8617 1.7365C12.0839 1.90896 12.2424 2.15045 12.3121 2.42292C12.5944 2.45322 12.8542 2.59064 13.0381 2.80685C13.222 3.02306 13.3159 3.30159 13.3005 3.58501C13.2851 3.86844 13.1616 4.13515 12.9554 4.33018C12.7492 4.52521 12.476 4.63369 12.1921 4.63325C12.1111 4.63307 12.0303 4.62415 11.9511 4.60665C11.7163 4.82734 11.4061 4.9502 11.0838 4.9502C10.7615 4.9502 10.4513 4.82734 10.2164 4.60665C10.1373 4.62415 10.0565 4.63307 9.97546 4.63325C9.69184 4.63304 9.41909 4.52411 9.21336 4.32887C9.00763 4.13364 8.88457 3.86697 8.86952 3.58375C8.85446 3.30052 8.94856 3.02231 9.13243 2.80637C9.31631 2.59043 9.57597 2.45319 9.85797 2.42292ZM3.48379 5.58325C3.108 5.58325 2.74066 5.47182 2.42821 5.26304C2.11575 5.05427 1.87222 4.75753 1.72842 4.41035C1.58461 4.06317 1.54699 3.68114 1.6203 3.31258C1.69361 2.94402 1.87457 2.60547 2.14029 2.33975C2.40601 2.07403 2.74455 1.89307 3.11312 1.81976C3.48168 1.74645 3.86371 1.78407 4.21089 1.92788C4.55807 2.07169 4.85481 2.31522 5.06358 2.62767C5.27236 2.94012 5.38379 3.30747 5.38379 3.68325C5.38329 4.18701 5.18295 4.66999 4.82674 5.0262C4.47053 5.38241 3.98755 5.58275 3.48379 5.58325Z" fill="#205732"/>
    <path d="M14.3869 8.11662H15.3822L13.2951 6.032C13.2108 5.94793 13.0968 5.90033 12.9778 5.89944C12.8587 5.89855 12.7441 5.94445 12.6586 6.02725L10.2921 8.29173L10.2867 8.2949L7.91712 10.5648C7.88733 10.5947 7.85186 10.6183 7.8128 10.6343C7.77374 10.6503 7.73188 10.6583 7.68968 10.6579C7.64747 10.6575 7.60577 10.6486 7.56704 10.6319C7.52831 10.6151 7.49331 10.5908 7.46412 10.5603C7.43493 10.5298 7.41212 10.4938 7.39704 10.4544C7.38196 10.4149 7.37492 10.3729 7.37632 10.3307C7.37773 10.2885 7.38755 10.2471 7.40521 10.2087C7.42287 10.1704 7.44802 10.136 7.47917 10.1075L9.62142 8.05708L7.59634 6.032C7.51213 5.94778 7.39816 5.90007 7.27906 5.89918C7.15997 5.89829 7.0453 5.9443 6.95984 6.02725L0.633789 12.0803V13.4999C0.633789 13.6679 0.700515 13.829 0.819288 13.9478C0.938061 14.0666 1.09915 14.1333 1.26712 14.1333H7.99629C8.06493 13.9203 8.18262 13.7263 8.33987 13.5671L13.3682 8.53873C13.5016 8.40447 13.6604 8.29802 13.8353 8.22556C14.0101 8.1531 14.1977 8.11607 14.3869 8.11662Z" fill="#205732"/>
    <path d="M3.48346 4.94984C4.18302 4.94984 4.75013 4.38273 4.75013 3.68317C4.75013 2.98361 4.18302 2.4165 3.48346 2.4165C2.7839 2.4165 2.2168 2.98361 2.2168 3.68317C2.2168 4.38273 2.7839 4.94984 3.48346 4.94984Z" fill="#205732"/>
    <path d="M9.975 4.00004C10.0458 3.99982 10.1156 3.98404 10.1796 3.95381C10.2464 3.92246 10.3221 3.91546 10.3936 3.93402C10.4651 3.95259 10.5278 3.99554 10.571 4.05546C10.6297 4.13631 10.7068 4.20212 10.7958 4.24749C10.8849 4.29286 10.9834 4.31651 11.0833 4.31651C11.1833 4.31651 11.2818 4.29286 11.3709 4.24749C11.4599 4.20212 11.537 4.13631 11.5957 4.05546C11.6389 3.99554 11.7016 3.95259 11.7731 3.93402C11.8445 3.91546 11.9202 3.92246 11.9871 3.95381C12.0511 3.98404 12.1209 3.99982 12.1917 4.00004C12.3176 4.00004 12.4385 3.95 12.5275 3.86092C12.6166 3.77184 12.6667 3.65102 12.6667 3.52504C12.6667 3.39907 12.6166 3.27825 12.5275 3.18917C12.4385 3.10009 12.3176 3.05004 12.1917 3.05004C12.158 3.05044 12.1244 3.05394 12.0913 3.06049C12.0456 3.069 11.9986 3.06734 11.9536 3.05563C11.9086 3.04392 11.8667 3.02244 11.831 2.99273C11.7952 2.96302 11.7664 2.9258 11.7467 2.88371C11.7269 2.84162 11.7167 2.7957 11.7167 2.74921C11.7188 2.58124 11.6541 2.41931 11.5368 2.29906C11.4195 2.1788 11.2592 2.11006 11.0913 2.10796C10.9233 2.10586 10.7614 2.17057 10.6411 2.28786C10.5208 2.40515 10.4521 2.56541 10.45 2.73338C10.4501 2.781 10.4399 2.82807 10.4202 2.87144C10.4006 2.91481 10.3719 2.95347 10.336 2.98481C10.3008 3.01574 10.2591 3.03855 10.2141 3.05163C10.1691 3.06471 10.1217 3.06774 10.0754 3.06049C10.0423 3.05394 10.0087 3.05044 9.975 3.05004C9.84902 3.05004 9.7282 3.10009 9.63912 3.18917C9.55004 3.27825 9.5 3.39907 9.5 3.52504C9.5 3.65102 9.55004 3.77184 9.63912 3.86092C9.7282 3.95 9.84902 4.00004 9.975 4.00004Z" fill="#205732"/>
    <path d="M18.0024 8.75H14.386C14.2801 8.74981 14.1752 8.77061 14.0773 8.81122C13.9795 8.85182 13.8907 8.91141 13.816 8.98655L8.78672 14.0149C8.71165 14.0894 8.65206 14.178 8.6114 14.2757C8.57074 14.3733 8.5498 14.478 8.5498 14.5838C8.5498 14.6896 8.57074 14.7943 8.6114 14.8919C8.65206 14.9896 8.71165 15.0782 8.78672 15.1527L11.9626 18.3292C12.0367 18.4044 12.1251 18.4641 12.2225 18.5049C12.3199 18.5456 12.4244 18.5666 12.53 18.5667C12.636 18.5667 12.741 18.5457 12.8388 18.5049C12.9366 18.4642 13.0254 18.4044 13.1 18.3292L18.1297 13.3011C18.2047 13.2264 18.2642 13.1376 18.3048 13.0398C18.3454 12.9419 18.3663 12.837 18.3662 12.7311V9.11417C18.3661 9.01767 18.3278 8.92514 18.2596 8.85687C18.1914 8.7886 18.0989 8.75017 18.0024 8.75ZM12.3495 12.8667V13.9975C12.3495 14.0815 12.3162 14.162 12.2568 14.2214C12.1974 14.2808 12.1169 14.3142 12.0329 14.3142C11.9489 14.3142 11.8683 14.2808 11.809 14.2214C11.7496 14.162 11.7162 14.0815 11.7162 13.9975V12.55C11.7162 12.466 11.7496 12.3855 11.809 12.3261C11.8683 12.2667 11.9489 12.2333 12.0329 12.2333H13.4804C13.5643 12.2333 13.6449 12.2667 13.7043 12.3261C13.7637 12.3855 13.797 12.466 13.797 12.55C13.797 12.634 13.7637 12.7145 13.7043 12.7739C13.6449 12.8333 13.5643 12.8667 13.4804 12.8667H12.3495ZM14.8829 15.0833C14.8829 15.1673 14.8495 15.2479 14.7901 15.3073C14.7307 15.3666 14.6502 15.4 14.5662 15.4H13.1187C13.0347 15.4 12.9542 15.3666 12.8948 15.3073C12.8354 15.2479 12.8021 15.1673 12.8021 15.0833C12.8021 14.9994 12.8354 14.9188 12.8948 14.8594C12.9542 14.8 13.0347 14.7667 13.1187 14.7667H14.2495V13.6359C14.2495 13.5519 14.2829 13.4713 14.3423 13.4119C14.4017 13.3525 14.4822 13.3192 14.5662 13.3192C14.6502 13.3192 14.7307 13.3525 14.7901 13.4119C14.8495 13.4713 14.8829 13.5519 14.8829 13.6359V15.0833ZM17.4083 11.2754C17.227 11.4567 16.9884 11.5696 16.7332 11.5947C16.478 11.6199 16.222 11.5558 16.0088 11.4133C15.7956 11.2709 15.6384 11.0589 15.5639 10.8135C15.4895 10.5682 15.5024 10.3046 15.6005 10.0677C15.6987 9.83077 15.8759 9.63521 16.102 9.51432C16.3281 9.39343 16.5892 9.35469 16.8407 9.4047C17.0922 9.4547 17.3186 9.59037 17.4812 9.78857C17.6439 9.98677 17.7329 10.2353 17.7329 10.4917C17.733 10.6372 17.7044 10.7814 17.6487 10.9159C17.593 11.0504 17.5113 11.1726 17.4083 11.2754Z" fill="#205732"/>
  </g>
  <defs>
    <clipPath id="clip0_1116_4918">
      <rect width="19" height="19" fill="white" transform="translate(0 0.199951)"/>
    </clipPath>
  </defs>
</svg>