<svg xmlns="http://www.w3.org/2000/svg" width="16" height="16" viewBox="0 0 16 16" fill="none">
  <g clip-path="url(#clip0_1116_4928)">
    <path d="M12.2762 15.2463C11.8643 15.0627 11.5009 14.7855 11.2149 14.4368C10.9288 14.0881 10.7282 13.6774 10.6287 13.2375C10.6194 13.1975 10.5975 13.1616 10.5662 13.135C10.2578 12.8682 9.99914 12.5486 9.8025 12.1913C9.72485 12.0543 9.68764 11.898 9.6952 11.7408C9.70276 11.5835 9.75478 11.4315 9.84522 11.3026C9.93566 11.1737 10.0608 11.0731 10.2061 11.0124C10.3515 10.9518 10.511 10.9336 10.6663 10.96C10.7668 10.9783 10.8692 10.9845 10.9712 10.9788C10.9988 10.9771 11.0256 10.9694 11.0498 10.9562C11.074 10.9431 11.095 10.9247 11.1112 10.9025C11.5062 10.3623 12.0812 9.981 12.7325 9.8275C12.7732 9.81772 12.8094 9.79451 12.8352 9.76162C12.8611 9.72873 12.8751 9.68809 12.875 9.64625V8.27875C12.875 8.23352 12.8586 8.18981 12.829 8.15561C12.7994 8.12142 12.7585 8.09901 12.7137 8.0925C12.605 8.07625 12.5087 8.05875 12.42 8.0375C12.0486 7.94773 11.6963 7.79192 11.38 7.5775C11.3456 7.55285 11.3034 7.54132 11.2612 7.545C10.8024 7.5715 10.3424 7.51475 9.90375 7.3775C9.21388 7.19913 9.06037 6.20825 9.66375 5.82875C9.77963 5.75035 9.8847 5.65705 9.97625 5.55125C9.99416 5.53103 10.0074 5.50709 10.0149 5.48115C10.0225 5.45522 10.0242 5.42793 10.02 5.40125C9.93532 4.80835 10.0194 4.20359 10.2625 3.65625C10.4787 3.16406 10.8172 2.73534 11.2458 2.41088C11.6744 2.08641 12.1789 1.87698 12.7113 1.8025C12.7574 1.79572 12.7994 1.77198 12.8289 1.73593C12.8585 1.69987 12.8736 1.65408 12.8713 1.6075C12.8516 1.17428 12.6656 0.765331 12.352 0.465868C12.0383 0.166405 11.6212 -0.000474689 11.1875 1.01423e-06H4.8125C4.36515 0.000662286 3.93631 0.178664 3.61999 0.494989C3.30366 0.811313 3.12566 1.24015 3.125 1.6875V4.475C3.12527 4.50122 3.131 4.52709 3.14181 4.55098C3.15261 4.57487 3.16827 4.59625 3.18778 4.61377C3.2073 4.63128 3.23024 4.64455 3.25515 4.65272C3.28006 4.66089 3.3064 4.6638 3.3325 4.66125C3.47575 4.64603 3.61969 4.63811 3.76375 4.6375C4.55422 4.63824 5.32779 4.86646 5.99208 5.29491C6.65636 5.72336 7.18331 6.33394 7.51 7.05375C7.52072 7.07785 7.53639 7.09943 7.55598 7.11709C7.57558 7.13475 7.59867 7.14809 7.62375 7.15625C7.86465 7.23522 8.11649 7.27572 8.37 7.27625C8.55436 7.27711 8.73472 7.33007 8.89027 7.42901C9.04583 7.52796 9.17025 7.66886 9.24917 7.83547C9.3281 8.00208 9.35832 8.18761 9.33635 8.37065C9.31438 8.5537 9.24111 8.7268 9.125 8.87C8.73514 9.36493 8.25235 9.77893 7.70375 10.0888C7.66365 10.1097 7.63288 10.1449 7.6175 10.1875C7.32442 10.9743 6.79736 11.6525 6.10726 12.1307C5.41715 12.609 4.59712 12.8643 3.7575 12.8625C3.6155 12.8614 3.47365 12.853 3.3325 12.8375C3.30641 12.835 3.28009 12.8379 3.25519 12.8461C3.23029 12.8543 3.20737 12.8676 3.18786 12.8851C3.16836 12.9026 3.1527 12.9239 3.14188 12.9478C3.13106 12.9717 3.12531 12.9975 3.125 13.0238V14.3125C3.12566 14.7599 3.30366 15.1887 3.61999 15.505C3.93631 15.8213 4.36515 15.9993 4.8125 16H11.1875C11.6095 16.0001 12.0161 15.8412 12.3263 15.555C12.349 15.534 12.3662 15.5077 12.3764 15.4784C12.3865 15.4491 12.3892 15.4178 12.3842 15.3872C12.3793 15.3566 12.3668 15.3277 12.348 15.3031C12.3291 15.2785 12.3045 15.259 12.2762 15.2463ZM6.825 1.375C6.68153 1.37052 6.54196 1.32723 6.42112 1.24976C6.30028 1.17228 6.2027 1.06351 6.13875 0.935001L5.83875 0.375001H10.1625L9.86125 0.935001C9.7973 1.06351 9.69972 1.17228 9.57888 1.24976C9.45804 1.32723 9.31847 1.37052 9.175 1.375H6.825ZM9.3125 14.375H6.6875C6.63777 14.375 6.59008 14.3552 6.55492 14.3201C6.51975 14.2849 6.5 14.2372 6.5 14.1875C6.5 14.1378 6.51975 14.0901 6.55492 14.0549C6.59008 14.0198 6.63777 14 6.6875 14H9.3125C9.36223 14 9.40992 14.0198 9.44508 14.0549C9.48025 14.0901 9.5 14.1378 9.5 14.1875C9.5 14.2372 9.48025 14.2849 9.44508 14.3201C9.40992 14.3552 9.36223 14.375 9.3125 14.375Z" fill="#385642"/>
    <path d="M13.1855 12.875H13.6808L13.8148 12.375H13.3195L13.1855 12.875Z" fill="#385642"/>
    <path d="M12.4781 10.3C11.9889 10.4966 11.5759 10.8455 11.3004 11.295C11.2962 11.3016 11.2907 11.3072 11.2843 11.3115C11.2778 11.3158 11.2705 11.3187 11.2629 11.32C11.0448 11.3642 10.8205 11.3677 10.6012 11.3301C10.5162 11.3157 10.4289 11.3257 10.3493 11.3589C10.2697 11.3922 10.2012 11.4473 10.1518 11.5179C10.1023 11.5886 10.0739 11.6718 10.0698 11.7579C10.0658 11.844 10.0863 11.9296 10.1289 12.0045C10.3289 12.3749 10.606 12.6981 10.9414 12.9524C10.9472 12.9564 10.9522 12.9616 10.956 12.9676C10.9598 12.9736 10.9624 12.9803 10.9636 12.9873C11.1395 14.1928 12.2742 15.1466 13.4587 15.1336C13.9122 15.1285 14.3558 15 14.7417 14.7619C15.1277 14.5238 15.4416 14.1851 15.6498 13.7822C15.8579 13.3793 15.9524 12.9273 15.9232 12.4747C15.8939 12.0221 15.742 11.5861 15.4837 11.2133C15.1596 10.7439 14.686 10.3982 14.1402 10.2324C13.5945 10.0665 13.0086 10.0904 12.4781 10.3ZM14.5634 12.375H14.2037L14.0699 12.875H14.4384C14.4881 12.875 14.5358 12.8948 14.571 12.9299C14.6061 12.9651 14.6259 13.0128 14.6259 13.0625C14.6259 13.1123 14.6061 13.1599 14.571 13.1951C14.5358 13.2303 14.4881 13.25 14.4384 13.25H13.9694L13.8495 13.6971C13.8431 13.721 13.8321 13.7433 13.8171 13.7628C13.8021 13.7824 13.7834 13.7988 13.7621 13.8111C13.7407 13.8234 13.7172 13.8314 13.6927 13.8346C13.6683 13.8378 13.6435 13.8362 13.6197 13.8298C13.5959 13.8235 13.5736 13.8125 13.554 13.7975C13.5345 13.7825 13.5181 13.7638 13.5057 13.7424C13.4934 13.7211 13.4854 13.6975 13.4822 13.6731C13.479 13.6487 13.4806 13.6238 13.487 13.6L13.5807 13.25H13.0855L12.9642 13.7026C12.9579 13.7265 12.9469 13.7488 12.9319 13.7683C12.9169 13.7879 12.8982 13.8043 12.8768 13.8166C12.8555 13.8289 12.8319 13.8369 12.8075 13.8401C12.7831 13.8433 12.7582 13.8417 12.7344 13.8353C12.7106 13.829 12.6883 13.818 12.6688 13.803C12.6492 13.788 12.6328 13.7693 12.6205 13.7479C12.6082 13.7266 12.6002 13.703 12.597 13.6786C12.5937 13.6542 12.5954 13.6293 12.6017 13.6055L12.697 13.25H12.4384C12.3886 13.25 12.341 13.2303 12.3058 13.1951C12.2706 13.1599 12.2509 13.1123 12.2509 13.0625C12.2509 13.0128 12.2706 12.9651 12.3058 12.9299C12.341 12.8948 12.3886 12.875 12.4384 12.875H12.798L12.9319 12.375H12.5634C12.5136 12.375 12.466 12.3553 12.4308 12.3201C12.3956 12.2849 12.3759 12.2373 12.3759 12.1875C12.3759 12.1378 12.3956 12.0901 12.4308 12.0549C12.466 12.0198 12.5136 12 12.5634 12H13.0324L13.1522 11.5529C13.1651 11.5048 13.1966 11.4638 13.2397 11.439C13.2828 11.4141 13.334 11.4073 13.3821 11.4202C13.4301 11.4331 13.4711 11.4645 13.496 11.5076C13.5209 11.5507 13.5276 11.602 13.5147 11.65L13.421 12H13.9162L14.0375 11.5474C14.0439 11.5236 14.0549 11.5013 14.0699 11.4817C14.0849 11.4622 14.1036 11.4458 14.1249 11.4335C14.1463 11.4211 14.1698 11.4131 14.1943 11.4099C14.2187 11.4067 14.2435 11.4083 14.2673 11.4147C14.2911 11.4211 14.3134 11.4321 14.333 11.4471C14.3525 11.4621 14.3689 11.4808 14.3812 11.5021C14.3936 11.5235 14.4016 11.547 14.4048 11.5715C14.408 11.5959 14.4064 11.6207 14.4 11.6445L14.3042 12H14.5634C14.6131 12 14.6608 12.0198 14.696 12.0549C14.7311 12.0901 14.7509 12.1378 14.7509 12.1875C14.7509 12.2373 14.7311 12.2849 14.696 12.3201C14.6608 12.3553 14.6131 12.375 14.5634 12.375Z" fill="#385642"/>
    <path d="M10.6066 3.8078C10.3648 4.34903 10.3013 4.95313 10.4254 5.5328C10.4279 5.54514 10.4278 5.55788 10.4252 5.57021C10.4226 5.58253 10.4174 5.59418 10.4101 5.60442C10.2666 5.81442 10.0854 5.99595 9.8756 6.1398C9.79924 6.19242 9.73924 6.26549 9.7025 6.35064C9.66575 6.43579 9.65375 6.52957 9.66785 6.62123C9.68196 6.71289 9.7216 6.79872 9.78224 6.86888C9.84289 6.93904 9.92208 6.9907 10.0107 7.01792C10.4574 7.16259 10.9301 7.2089 11.3964 7.15367C11.4069 7.15211 11.4177 7.15265 11.4281 7.15527C11.4385 7.15789 11.4483 7.16253 11.4569 7.16892C11.9503 7.54475 12.5527 7.74967 13.173 7.75267C15.2276 7.76205 16.6084 5.51392 15.6589 3.66917C14.5922 1.59767 11.552 1.6678 10.6066 3.8078ZM13.3597 6.2048C13.3074 6.23448 13.2483 6.25008 13.1881 6.25008C13.1279 6.25008 13.0688 6.23448 13.0165 6.2048C12.2831 5.78792 11.8665 5.2703 11.8842 4.61417C11.8838 4.51755 11.9024 4.42179 11.9389 4.33236C11.9755 4.24292 12.0293 4.16156 12.0973 4.09293C12.1653 4.02429 12.2462 3.96973 12.3353 3.93234C12.4244 3.89496 12.52 3.87549 12.6166 3.87505C12.7266 3.875 12.8352 3.89991 12.9342 3.94791C13.0332 3.99591 13.12 4.06575 13.1881 4.15217C13.2562 4.06575 13.343 3.99591 13.442 3.94791C13.541 3.89991 13.6496 3.875 13.7596 3.87505C13.8562 3.87549 13.9518 3.89496 14.0409 3.93234C14.13 3.96973 14.2109 4.02429 14.2789 4.09293C14.3469 4.16156 14.4007 4.24292 14.4373 4.33236C14.4738 4.42179 14.4924 4.51755 14.492 4.61417C14.5104 5.2703 14.0931 5.78755 13.3597 6.2048Z" fill="#385642"/>
    <path d="M7.31296 9.92399C7.32057 9.90177 7.33251 9.88129 7.34809 9.86372C7.36367 9.84615 7.38257 9.83183 7.40371 9.82161C7.96128 9.53286 8.44975 9.12686 8.83558 8.63149C8.90656 8.54325 8.95123 8.4368 8.96448 8.32434C8.97773 8.21188 8.95902 8.09796 8.91049 7.99565C8.86197 7.89333 8.78559 7.80677 8.69011 7.74587C8.59464 7.68498 8.48394 7.65222 8.37071 7.65136C8.01711 7.64951 7.66693 7.58204 7.33796 7.45236C7.31332 7.44308 7.29083 7.42885 7.27189 7.41056C7.25296 7.39227 7.23796 7.37029 7.22783 7.34599C6.93102 6.61313 6.40904 5.99353 5.73721 5.57661C3.09483 3.92036 -0.293918 6.11886 0.0552072 9.20249C0.261582 11.025 1.94758 12.5305 3.76546 12.4925C5.29921 12.526 6.84683 11.4289 7.31296 9.92399ZM2.87546 10.3401C2.81859 10.3734 2.75387 10.391 2.68796 10.391H2.18796C2.0885 10.391 1.99312 10.3515 1.92279 10.2812C1.85247 10.2108 1.81296 10.1154 1.81296 10.016V8.14099C1.81296 8.04153 1.85247 7.94615 1.92279 7.87582C1.99312 7.80549 2.0885 7.76599 2.18796 7.76599H2.68796C2.75377 7.76587 2.81844 7.78311 2.87546 7.81599V10.3401ZM3.25046 10.1721V7.92636C3.61771 7.58561 3.85396 6.89186 4.01133 6.56486C4.28833 5.98886 4.84633 6.76149 4.70996 7.17736C4.66283 7.32136 4.56296 7.76486 4.56296 7.76486C4.86133 7.76486 5.14747 7.88339 5.35845 8.09436C5.56943 8.30534 5.68796 8.59149 5.68796 8.88986V9.26486C5.68796 9.56323 5.56943 9.84938 5.35845 10.0604C5.14747 10.2713 4.86133 10.3899 4.56296 10.3899H3.86496C3.74853 10.3898 3.63371 10.3627 3.52958 10.3106L3.25046 10.1721Z" fill="#385642"/>
  </g>
  <defs>
    <clipPath id="clip0_1116_4928">
      <rect width="16" height="16" fill="white"/>
    </clipPath>
  </defs>
</svg>